<svg width="267" height="169" viewBox="0 0 267 169" fill="none" xmlns="http://www.w3.org/2000/svg">
<path d="M26.3991 135H3.33097L38.4801 33.1818H66.2216L101.321 135H78.2528L52.7486 56.4489H51.9531L26.3991 135ZM24.9574 94.9787H79.446V111.783H24.9574V94.9787ZM134.357 33.1818V135H113.178V33.1818H134.357Z" fill="black"/>
<path d="M84.6463 135L65.598 69.5455H83.0803L92.956 112.436H93.4993L104.781 69.5455H119.036L130.317 112.532H130.861L140.768 69.5455H158.219L139.202 135H123.957L112.164 95.3054H111.653L99.8594 135H84.6463ZM182.253 135.927C177.118 135.927 172.686 134.915 168.957 132.891C165.25 130.845 162.395 127.937 160.392 124.165C158.411 120.373 157.42 115.866 157.42 110.646C157.42 105.575 158.421 101.143 160.424 97.3509C162.427 93.5369 165.25 90.5753 168.893 88.4659C172.537 86.3352 176.83 85.2699 181.773 85.2699C185.268 85.2699 188.464 85.8132 191.362 86.8999C194.259 87.9865 196.763 89.5952 198.872 91.7259C200.982 93.8565 202.622 96.4879 203.794 99.62C204.966 102.731 205.552 106.3 205.552 110.327V114.226H162.885V105.149H191.01C190.989 103.487 190.594 102.006 189.827 100.707C189.06 99.407 188.006 98.3949 186.663 97.6705C185.342 96.9247 183.819 96.5518 182.093 96.5518C180.346 96.5518 178.78 96.946 177.395 97.7344C176.01 98.5014 174.913 99.5561 174.103 100.898C173.293 102.219 172.867 103.722 172.825 105.405V114.641C172.825 116.644 173.219 118.402 174.007 119.915C174.795 121.406 175.914 122.567 177.363 123.398C178.812 124.229 180.538 124.645 182.54 124.645C183.925 124.645 185.183 124.453 186.312 124.07C187.441 123.686 188.411 123.121 189.22 122.376C190.03 121.63 190.637 120.714 191.042 119.627L205.392 120.043C204.795 123.26 203.485 126.062 201.461 128.448C199.458 130.813 196.827 132.656 193.567 133.977C190.307 135.277 186.536 135.927 182.253 135.927ZM213.534 135V69.5455H229.162V94.3146H229.482C230.121 92.8232 231.027 91.3849 232.199 90C233.392 88.6151 234.905 87.4858 236.737 86.6122C238.591 85.7173 240.807 85.2699 243.385 85.2699C246.794 85.2699 249.979 86.1648 252.941 87.9545C255.924 89.7443 258.331 92.5035 260.164 96.2322C261.996 99.9609 262.912 104.712 262.912 110.487C262.912 116.048 262.028 120.703 260.26 124.453C258.513 128.203 256.148 131.016 253.165 132.891C250.203 134.766 246.911 135.703 243.289 135.703C240.817 135.703 238.676 135.298 236.865 134.489C235.054 133.679 233.53 132.614 232.295 131.293C231.08 129.972 230.143 128.555 229.482 127.042H229.003V135H213.534ZM228.843 110.455C228.843 113.097 229.194 115.398 229.898 117.358C230.622 119.318 231.655 120.842 232.998 121.928C234.361 122.994 235.991 123.526 237.888 123.526C239.805 123.526 241.435 122.994 242.778 121.928C244.12 120.842 245.132 119.318 245.814 117.358C246.517 115.398 246.868 113.097 246.868 110.455C246.868 107.812 246.517 105.522 245.814 103.583C245.132 101.644 244.12 100.142 242.778 99.0767C241.456 98.0114 239.827 97.4787 237.888 97.4787C235.97 97.4787 234.34 98.0007 232.998 99.0447C231.655 100.089 230.622 101.58 229.898 103.519C229.194 105.458 228.843 107.77 228.843 110.455Z" fill="#F75023"/>
</svg>
