<svg width="389" height="145" viewBox="0 0 389 145" fill="none" xmlns="http://www.w3.org/2000/svg">
<path d="M287.483 116H264.812L294.259 28.7273H322.341L351.787 116H329.116L308.619 50.7159H307.938L287.483 116ZM284.457 81.6534H331.844V97.6761H284.457V81.6534ZM382.021 28.7273V116H361.183V28.7273H382.021Z" fill="#F75023"/>
<path d="M27.5284 116L2.13068 28.7273H25.4403L38.608 85.9148H39.3324L54.375 28.7273H73.3807L88.4233 86.0426H89.1477L102.358 28.7273H125.625L100.27 116H79.9432L64.2188 63.0739H63.5369L47.8125 116H27.5284ZM157.67 117.236C150.824 117.236 144.915 115.886 139.943 113.188C135 110.46 131.193 106.582 128.523 101.554C125.881 96.4972 124.56 90.4886 124.56 83.5284C124.56 76.767 125.895 70.858 128.565 65.8011C131.236 60.7159 135 56.767 139.858 53.9545C144.716 51.1136 150.44 49.6932 157.031 49.6932C161.69 49.6932 165.952 50.4176 169.815 51.8665C173.679 53.3153 177.017 55.4602 179.83 58.3011C182.642 61.142 184.83 64.6506 186.392 68.8267C187.955 72.9744 188.736 77.733 188.736 83.1023V88.3011H131.847V76.1989H169.347C169.318 73.983 168.793 72.0085 167.77 70.2756C166.747 68.5426 165.341 67.1932 163.551 66.2273C161.79 65.233 159.759 64.7358 157.457 64.7358C155.128 64.7358 153.04 65.2614 151.193 66.3125C149.347 67.3352 147.884 68.7415 146.804 70.5312C145.724 72.2926 145.156 74.2955 145.099 76.5398V88.8551C145.099 91.5256 145.625 93.8693 146.676 95.8864C147.727 97.875 149.219 99.4233 151.151 100.531C153.082 101.639 155.384 102.193 158.054 102.193C159.901 102.193 161.577 101.937 163.082 101.426C164.588 100.915 165.881 100.162 166.96 99.1676C168.04 98.1733 168.849 96.9517 169.389 95.5028L188.523 96.0568C187.727 100.347 185.98 104.082 183.281 107.264C180.611 110.418 177.102 112.875 172.756 114.636C168.409 116.369 163.381 117.236 157.67 117.236ZM199.379 116V28.7273H220.217V61.7528H220.643C221.495 59.7642 222.702 57.8466 224.265 56C225.856 54.1534 227.873 52.6477 230.316 51.483C232.788 50.2898 235.742 49.6932 239.18 49.6932C243.725 49.6932 247.972 50.8864 251.921 53.2727C255.898 55.6591 259.109 59.3381 261.552 64.3097C263.995 69.2812 265.217 75.6165 265.217 83.3153C265.217 90.7301 264.038 96.9375 261.68 101.938C259.35 106.938 256.197 110.688 252.219 113.188C248.271 115.688 243.881 116.938 239.052 116.938C235.756 116.938 232.901 116.398 230.487 115.318C228.072 114.239 226.04 112.818 224.393 111.057C222.773 109.295 221.523 107.406 220.643 105.389H220.004V116H199.379ZM219.79 83.2727C219.79 86.7955 220.259 89.8636 221.197 92.4773C222.163 95.0909 223.54 97.1222 225.33 98.571C227.148 99.9915 229.322 100.702 231.85 100.702C234.407 100.702 236.58 99.9915 238.37 98.571C240.16 97.1222 241.509 95.0909 242.418 92.4773C243.356 89.8636 243.825 86.7955 243.825 83.2727C243.825 79.75 243.356 76.696 242.418 74.1108C241.509 71.5256 240.16 69.5227 238.37 68.1023C236.609 66.6818 234.435 65.9716 231.85 65.9716C229.293 65.9716 227.12 66.6676 225.33 68.0597C223.54 69.4517 222.163 71.4403 221.197 74.0256C220.259 76.6108 219.79 79.6932 219.79 83.2727Z" fill="black"/>
</svg>
