<svg width="328" height="182" viewBox="0 0 328 182" fill="none" xmlns="http://www.w3.org/2000/svg">
<path d="M107.28 76.4332H80.6463C80.2912 73.6989 79.5632 71.2308 78.4624 69.0291C77.3615 66.8274 75.9055 64.9453 74.0945 63.3828C72.2834 61.8203 70.1349 60.6307 67.6492 59.8139C65.1989 58.9616 62.4822 58.5355 59.4993 58.5355C54.2081 58.5355 49.6449 59.8317 45.8097 62.424C42.0099 65.0163 39.0803 68.7628 37.0206 73.6633C34.9964 78.5639 33.9844 84.4943 33.9844 91.4545C33.9844 98.6989 35.0142 104.771 37.0739 109.672C39.169 114.537 42.0987 118.212 45.8629 120.698C49.6626 123.148 54.1548 124.374 59.3395 124.374C62.2514 124.374 64.897 124.001 67.2763 123.255C69.6911 122.509 71.804 121.426 73.6151 120.006C75.4617 118.55 76.9709 116.792 78.1428 114.732C79.3501 112.637 80.1847 110.276 80.6463 107.648L107.28 107.808C106.818 112.637 105.415 117.396 103.072 122.083C100.763 126.771 97.5852 131.05 93.5369 134.92C89.4886 138.756 84.5526 141.81 78.7287 144.082C72.9403 146.355 66.2997 147.491 58.8068 147.491C48.9347 147.491 40.0923 145.325 32.2798 140.993C24.5028 136.625 18.3594 130.268 13.8494 121.923C9.33949 113.578 7.08452 103.422 7.08452 91.4545C7.08452 79.4517 9.375 69.2777 13.956 60.9325C18.5369 52.5874 24.7337 46.2486 32.5462 41.9162C40.3587 37.5838 49.1122 35.4176 58.8068 35.4176C65.4119 35.4176 71.5199 36.3409 77.1307 38.1875C82.7415 39.9986 87.6776 42.6619 91.9389 46.1776C96.2003 49.6577 99.6626 53.9368 102.326 59.0149C104.989 64.093 106.641 69.8991 107.28 76.4332ZM148.415 99.3381V146H122.368V36.9091H147.563V79.2031H148.469C150.315 74.1605 153.334 70.2187 157.524 67.3778C161.75 64.5369 166.917 63.1165 173.025 63.1165C178.778 63.1165 183.785 64.3949 188.046 66.9517C192.307 69.473 195.61 73.0419 197.954 77.6584C200.333 82.2749 201.505 87.6726 201.469 93.8516V146H175.422V98.9652C175.457 94.4197 174.321 90.8686 172.013 88.3118C169.704 85.755 166.455 84.4766 162.265 84.4766C159.53 84.4766 157.116 85.0803 155.02 86.2876C152.961 87.4595 151.345 89.1463 150.173 91.348C149.037 93.5497 148.451 96.2131 148.415 99.3381Z" fill="black"/>
<path d="M200.854 146H172.516L209.323 36.9091H244.426L281.234 146H252.896L227.274 64.3949H226.422L200.854 146ZM197.072 103.067H256.305V123.095H197.072V103.067ZM319.027 36.9091V146H292.979V36.9091H319.027Z" fill="#F75023"/>
</svg>
