<svg width="208" height="169" viewBox="0 0 208 169" fill="none" xmlns="http://www.w3.org/2000/svg">
<path d="M26.3991 135H3.33097L38.4801 33.1818H66.2216L101.321 135H78.2528L52.7486 56.4489H51.9531L26.3991 135ZM24.9574 94.9787H79.446V111.783H24.9574V94.9787ZM134.357 33.1818V135H113.178V33.1818H134.357Z" fill="black"/>
<path d="M78.6818 135L65.1364 88.4545H77.5682L84.5909 118.955H84.9773L93 88.4545H103.136L111.159 119.023H111.545L118.591 88.4545H131L117.477 135H106.636L98.25 106.773H97.8864L89.5 135H78.6818ZM148.091 135.659C144.439 135.659 141.288 134.939 138.636 133.5C136 132.045 133.97 129.977 132.545 127.295C131.136 124.598 130.432 121.394 130.432 117.682C130.432 114.076 131.144 110.924 132.568 108.227C133.992 105.515 136 103.409 138.591 101.909C141.182 100.394 144.235 99.6364 147.75 99.6364C150.235 99.6364 152.508 100.023 154.568 100.795C156.629 101.568 158.409 102.712 159.909 104.227C161.409 105.742 162.576 107.614 163.409 109.841C164.242 112.053 164.659 114.591 164.659 117.455V120.227H134.318V113.773H154.318C154.303 112.591 154.023 111.538 153.477 110.614C152.932 109.689 152.182 108.97 151.227 108.455C150.288 107.924 149.205 107.659 147.977 107.659C146.735 107.659 145.621 107.939 144.636 108.5C143.652 109.045 142.871 109.795 142.295 110.75C141.72 111.689 141.417 112.758 141.386 113.955V120.523C141.386 121.947 141.667 123.197 142.227 124.273C142.788 125.333 143.583 126.159 144.614 126.75C145.644 127.341 146.871 127.636 148.295 127.636C149.28 127.636 150.174 127.5 150.977 127.227C151.78 126.955 152.47 126.553 153.045 126.023C153.621 125.492 154.053 124.841 154.341 124.068L164.545 124.364C164.121 126.652 163.189 128.644 161.75 130.341C160.326 132.023 158.455 133.333 156.136 134.273C153.818 135.197 151.136 135.659 148.091 135.659ZM170.335 135V88.4545H181.449V106.068H181.676C182.131 105.008 182.775 103.985 183.608 103C184.456 102.015 185.532 101.212 186.835 100.591C188.153 99.9545 189.729 99.6364 191.562 99.6364C193.987 99.6364 196.252 100.273 198.358 101.545C200.479 102.818 202.191 104.78 203.494 107.432C204.797 110.083 205.449 113.462 205.449 117.568C205.449 121.523 204.82 124.833 203.562 127.5C202.32 130.167 200.638 132.167 198.517 133.5C196.411 134.833 194.07 135.5 191.494 135.5C189.737 135.5 188.214 135.212 186.926 134.636C185.638 134.061 184.555 133.303 183.676 132.364C182.812 131.424 182.146 130.417 181.676 129.341H181.335V135H170.335ZM181.222 117.545C181.222 119.424 181.472 121.061 181.972 122.455C182.487 123.848 183.222 124.932 184.176 125.705C185.146 126.462 186.305 126.841 187.653 126.841C189.017 126.841 190.176 126.462 191.131 125.705C192.085 124.932 192.805 123.848 193.29 122.455C193.79 121.061 194.04 119.424 194.04 117.545C194.04 115.667 193.79 114.038 193.29 112.659C192.805 111.28 192.085 110.212 191.131 109.455C190.191 108.697 189.032 108.318 187.653 108.318C186.29 108.318 185.131 108.689 184.176 109.432C183.222 110.174 182.487 111.235 181.972 112.614C181.472 113.992 181.222 115.636 181.222 117.545Z" fill="#F75023"/>
</svg>
