<svg width="424" height="182" viewBox="0 0 424 182" fill="none" xmlns="http://www.w3.org/2000/svg">
<path d="M49.0057 146H7.03125V36.9091H48.5795C59.8011 36.9091 69.4957 39.093 77.6634 43.4609C85.8665 47.7933 92.1875 54.0433 96.6264 62.2109C101.101 70.343 103.338 80.0909 103.338 91.4545C103.338 102.818 101.119 112.584 96.6797 120.751C92.2408 128.884 85.9553 135.134 77.8232 139.501C69.6911 143.834 60.0852 146 49.0057 146ZM36.6477 120.858H47.9403C53.3381 120.858 57.9368 119.988 61.7365 118.248C65.5717 116.508 68.4837 113.507 70.4723 109.246C72.4965 104.984 73.5085 99.054 73.5085 91.4545C73.5085 83.8551 72.4787 77.9247 70.419 73.6633C68.3949 69.402 65.4119 66.4013 61.4702 64.6612C57.5639 62.9212 52.7699 62.0511 47.0881 62.0511H36.6477V120.858ZM156.672 147.491C147.936 147.491 140.407 145.822 134.086 142.484C127.801 139.111 122.954 134.281 119.545 127.996C116.171 121.675 114.484 114.111 114.484 105.304C114.484 96.8523 116.189 89.4659 119.598 83.1449C123.007 76.8239 127.819 71.9055 134.033 68.3899C140.248 64.8743 147.581 63.1165 156.032 63.1165C162.211 63.1165 167.805 64.0753 172.812 65.9929C177.819 67.9105 182.098 70.6982 185.649 74.3558C189.2 77.978 191.934 82.3814 193.852 87.5661C195.77 92.7507 196.729 98.5923 196.729 105.091V111.909H123.646V95.7159H169.669C169.633 93.3722 169.03 91.3125 167.858 89.5369C166.721 87.7259 165.177 86.3232 163.224 85.3288C161.306 84.299 159.122 83.7841 156.672 83.7841C154.292 83.7841 152.108 84.299 150.12 85.3288C148.131 86.3232 146.533 87.7081 145.326 89.4837C144.154 91.2592 143.532 93.3366 143.461 95.7159V113.188C143.461 115.815 144.012 118.159 145.113 120.219C146.214 122.278 147.794 123.894 149.854 125.066C151.913 126.238 154.399 126.824 157.311 126.824C159.335 126.824 161.182 126.54 162.851 125.972C164.555 125.403 166.011 124.587 167.219 123.521C168.426 122.42 169.314 121.107 169.882 119.58H196.729C195.805 125.261 193.621 130.197 190.177 134.388C186.732 138.543 182.169 141.774 176.487 144.082C170.841 146.355 164.236 147.491 156.672 147.491ZM289.134 64.1818L261.648 146H227.557L200.071 64.1818H230.966L244.176 118.301H245.028L258.239 64.1818H289.134Z" fill="#F75023"/>
<path d="M295.369 146H263.409L299.418 36.9091H339.901L375.909 146H343.949L320.085 66.9517H319.233L295.369 146ZM289.403 102.96H349.489V125.119H289.403V102.96ZM416.246 36.9091V146H386.842V36.9091H416.246Z" fill="black"/>
</svg>
